<svg width="71" height="62" viewBox="0 0 71 62" fill="none" xmlns="http://www.w3.org/2000/svg">
<path d="M49.0306 29.2972C51.9816 13.6531 40.0708 0 24.96 0C23.4311 0 21.8311 0.142219 20.2667 0.426658C10.418 2.27551 2.5604 10.2398 0.782658 20.0529C-0.248432 25.7417 0.747104 31.1461 3.09372 35.7326C3.34261 36.2304 3.41372 36.7993 3.23594 37.3682L0.107116 46.7902C-0.355097 48.2124 0.747104 49.599 2.09819 49.599C2.31152 49.599 2.5604 49.5635 2.77373 49.4924L12.2313 46.328C12.4447 46.2569 12.658 46.2213 12.8713 46.2213C13.1913 46.2213 13.5469 46.2924 13.8313 46.4702C17.1734 48.1768 20.9423 49.1368 24.9244 49.1368C26.4177 49.1368 27.911 48.9946 29.4399 48.7457C39.253 47.0035 47.1817 39.1459 49.0306 29.3683" fill="#B2BBCF" fill-opacity="0.4"/>
<path d="M70.3661 56.5677L67.5928 48.1412C69.9394 43.5191 70.6861 38.328 69.7617 33.137C68.055 23.6794 60.5885 16.1063 51.1665 14.293C51.6642 15.6085 52.0909 16.9596 52.4109 18.3462C59.4507 20.444 64.8906 26.4172 66.2062 33.777C66.9884 38.1858 66.3484 42.5946 64.3573 46.5057C63.8951 47.3945 63.824 48.3901 64.144 49.3145L66.9528 57.7054C66.9528 57.7054 66.9528 57.7054 66.9528 57.7766C66.9528 57.7766 66.9528 57.7766 66.8817 57.7766L58.5263 55.0033C58.1708 54.8611 57.7797 54.8255 57.3886 54.8255C56.8197 54.8255 56.2152 54.9677 55.6819 55.2522C51.7353 57.2788 47.3265 57.9188 42.9177 57.1366C38.9 56.4255 35.309 54.47 32.5002 51.7322C31.718 51.9456 30.9357 52.1233 30.118 52.2656C29.5136 52.3722 28.9091 52.4433 28.3047 52.5144C31.7891 56.7099 36.6601 59.6965 42.2422 60.692C47.4688 61.6165 52.6598 60.8698 57.353 58.4521L65.7084 61.2254C66.0995 61.3676 66.4906 61.4031 66.8817 61.4031C67.8417 61.4031 68.7661 61.012 69.4772 60.3009C70.4727 59.3054 70.8283 57.8477 70.3661 56.5321" fill="#B2BBCF" fill-opacity="0.4"/>
</svg>
