<svg width="89" height="75" viewBox="0 0 89 75" fill="none" xmlns="http://www.w3.org/2000/svg">
<g opacity="0.7">
<path d="M53.32 0.271973C48.7804 -0.842008 44.1099 1.56709 42.8719 5.65169C41.6338 9.73629 44.3112 13.9477 48.8508 15.0526C53.3904 16.1666 58.0609 13.7575 59.299 9.67289C60.537 5.58829 57.8596 1.3769 53.32 0.271973Z" fill="white" fill-opacity="0.4"/>
<path d="M12.5464 37.9433C13.4724 34.8821 11.4693 31.7213 8.06716 30.888C4.66497 30.0548 1.15207 31.8571 0.226028 34.9183C-0.700011 37.9795 1.30305 41.1403 4.70524 41.9735C8.10742 42.8067 11.6203 41.0044 12.5464 37.9433ZM35.9188 72.205C44.2632 75.9907 54.4899 76.0722 63.2168 71.5801C71.9236 67.097 77.0369 59.1451 77.661 50.7676C72.0343 54.816 65.24 58.9459 57.7411 62.795C50.1918 66.6803 42.7131 69.8864 35.9188 72.205ZM88.1796 26.5317C85.0089 21.632 74.6312 23.1536 63.549 26.7672C54.9328 22.2026 43.921 21.7951 34.6203 26.577C25.4505 31.2956 20.2868 39.8633 20.1459 48.7299C13.261 53.7201 8.05709 58.7466 6.84922 62.7678C6.17482 64.9777 6.75863 66.5535 7.36256 67.4864C8.79188 69.6872 11.6707 70.5929 15.4251 70.5929C26.0343 70.5929 43.5888 63.3565 54.6711 57.7504C69.9608 50.025 86.408 38.8308 88.703 31.2503C89.3673 29.0405 88.7936 27.4646 88.1896 26.5317H88.1796ZM12.9087 64.5701C12.9087 63.1754 15.6265 59.8515 21.0418 55.5315C21.6658 57.7232 22.6019 59.8787 23.9105 61.9346C24.2024 62.3965 24.5245 62.8403 24.8566 63.2841C18.4247 64.9777 14.177 65.2766 12.9188 64.5701H12.9087ZM40.5087 35.8421C35.5765 38.378 32.3958 42.9516 32.0133 48.0597C31.9227 49.3276 30.745 50.2967 29.366 50.2967C29.3057 50.2967 29.2453 50.2967 29.1849 50.2967C27.7153 50.2061 26.6081 49.065 26.7087 47.7517C27.212 41.0407 31.3892 35.036 37.8715 31.7031C39.1498 31.042 40.7704 31.4405 41.5052 32.5907C42.2299 33.7409 41.7971 35.1991 40.5188 35.8602L40.5087 35.8421ZM74.9734 38.07C74.6514 37.4361 74.3091 36.8112 73.9266 36.2044C72.6986 34.2662 71.1988 32.5454 69.5481 31.0148C76.6141 29.0495 81.2846 28.6782 82.6133 29.4299C82.6133 30.7794 80.0667 33.9492 74.9734 38.0791V38.07Z" fill="white" fill-opacity="0.4"/>
</g>
</svg>
